<svg xmlns="http://www.w3.org/2000/svg">
  <svg id="CalmsScaredFearfulAnimals" viewBox="0 0 66 66">
    <path d="M37.8 31.9c-2.4 3.4-3.7 7.2-3.8 11.4 2.5-3.4 3.7-7.3 3.8-11.4M33 43.3c0-4.2-1.3-7.9-3.7-11.4.1 4.2 1.3 8 3.7 11.4m-.7.6c-.9-2.3-7.4-7.1-10.2-7.4 2.7 3.5 6.1 5.9 10.2 7.4m12.6-7.4c-3 .5-9.5 5.3-10.1 7.4 4.1-1.5 7.4-3.9 10.1-7.4m-17.4 0v-.3c-.3-1.6-.5-3.2-.5-4.9 0-.2-.1-.4-.3-.5-1.1-1.3-2.3-2.4-3.7-3.3-1.1-.8-2.4-1.5-3.7-2v.3c.3 2.9 1.3 5.6 2.8 8.1l.3.3c1.8.5 3.5 1.3 5.1 2.3m6-1.8l.2-.2c.7-1.6 1.6-3 2.6-4.4.1-.2.1-.3.1-.5-.2-2.2-.7-4.3-1.6-6.4-.3-.8-.7-1.6-1.2-2.3-1.6 2.7-2.5 5.6-2.8 8.7 0 .2 0 .3.1.4 1 1.5 1.8 3 2.6 4.7m-6.3 9.4c0-.1 0-.1-.1-.1-.1-.1-.3-.2-.4-.3-2.3-1.4-4.4-3.2-6-5.4-.6-.8-1.3-1.2-2.3-1.4-2.4-.4-4.8-.4-7.2 0-.5.1-.5.1-.2.5.1.1.2.3.4.4 3.2 3.3 7.1 5.3 11.6 6 1.4.3 2.8.4 4.2.3m12.6-.1c6.6.2 12.1-2.1 16.5-7-.2-.1-.3-.1-.4-.1-2.9-.5-5.7-.5-8.6.2-.3.1-.4.3-.6.5-1.5 2-3.3 3.8-5.3 5.2-.4.4-1 .8-1.6 1.2m-.2-7.6c.2 0 .4-.1.5-.2 1.4-.8 2.8-1.4 4.3-1.9.3-.1.5-.3.7-.6 1.4-2.4 2.2-4.9 2.6-7.6 0-.2.1-.3 0-.4-.1-.1-.3 0-.4.1-2.6 1.2-4.9 2.9-6.8 5-.3.3-.3.6-.4 1 0 .7-.1 1.4-.2 2-.1.8-.2 1.7-.3 2.6M18.9 34l-.6-1.3c-1.6-3.5-2.1-7.2-2-10.9 0-.4.2-.3.5-.3 4.2 1.2 7.9 3.1 11 6.2 0 0 .1.1.2.1.2-.8.3-1.6.5-2.3.8-3.5 2.6-6.6 4.8-9.4.2-.2.3-.2.5 0 2.7 3.3 4.5 7 5.2 11.3 0 .1 0 .3.2.4.9-.9 1.9-1.8 3-2.6 2.5-1.8 5.3-3 8.2-3.8.4-.1.3.1.3.3.2 4.2-.5 8.2-2.4 11.9 0 .1-.1.2-.1.3l2.7-.3c2.6-.2 5.2.1 7.7.8.7.2 1.4.4 2.1.7.3.1.4.2.2.5-3.8 5.9-9.1 9.6-16.1 10.9-3.5.6-6.9.5-10.3-.5-.6-.2-1.2-.2-1.8 0-9.2 2.3-17.1 0-23.7-6.7-1.1-1.1-2-2.4-2.9-3.7-.1-.1-.1-.2.1-.3 2.3-.8 4.6-1.3 7-1.5 1.8-.1 3.6 0 5.4.2h.3" fill="currentColor"/>
  </svg>
  <svg id="HelpsReduceStress" viewBox="0 0 66 66">
    <path d="M28.4 49.5c-.7-.2-1.4-.5-2.1-.7-1.2-.3-2.2-.9-2.4-2.3-.1-.4-.3-.5-.6-.5-1.2-.1-2.5-.2-3.7.1-.4.1-.9.2-1.1.8-.4 1.5.1 2.4 1.6 2.7 2.8.6 5.5.2 8.3-.1m14.5.4c1.4 0 2.5-.1 3.5-.5.7-.3 1-.8 1-1.5s-.3-1.3-1.1-1.5c-.6-.1-1.2-.2-1.7-.2-2.2.1-4.4.2-6.5.3-2.6.1-5.2-.1-7.8-.9-1.1-.3-2.3-.9-3.6-.3-.3.2-.7.4-.7.7 0 .4.4.6.7.7 1.8.6 3.6 1.4 5.5 1.7 1.6.3 3.3.5 4.9.8 2.1.3 4.1.4 5.8.7m-3.2-5.5c-.4-1.3-1.2-2.3-1.3-3.6-.2-2-.2-3.9 0-5.9.1-.9.3-1.6 1.1-1.8.8-.2 1.2.6 1.5 1.2 1.1 2.3 3 4.1 4.9 5.6 1.1.9 2.4 1.4 3.9 1.3.3 0 .6-.1.7-.5.1-.4-.3-.4-.5-.6-.5-.3-1-.4-1.5-.7-1.4-1-2.7-2-3.8-3.4-1.2-1.6-2.5-3.2-3.3-4.9-.7-1.7-1.8-2.7-3.4-3.1-3-.9-6-1.1-9.1-.3-2 .5-3.4 1.5-4.4 3.4-.6 1.2-1.2 2.5-2.1 3.5-1.9 2.1-3.8 4.3-6.9 4.8-.6.1-.5.5-.1.8.5.4 1.2.4 1.8.3 3.7-.6 6.1-3.1 8-6.1.3-.5.6-1.3 1.4-1.1.8.1.9.9 1.1 1.5.7 2.3.8 4.7.2 7.1-.2.8-.1 1.4.9 1.5.7.1 1.4.3 2.1.5 2.9.8 5.8.7 8.8.5M26 36.9c-1.2 1.5-2.4 2.9-3.9 3.8-2.2 1.3-4.5 2.4-7.2 1.6-1-.3-2-1.7-1.9-2.9.1-1.2.9-2 2.1-2.2 2.5-.4 4-2 5.4-3.9 1.1-1.5 2-3.1 3-4.6 1.4-2.1 3.6-2.8 5.9-3.3 2.4-.5 4.9-.4 7.3 0 2.8.5 5.2 1.8 6.6 4.6 1.2 2.6 3 4.8 5 6.8.9.9 2.1 1.2 3.3 1.5 1.1.3 1.3 1.2 1.4 2 .1.9-.2 1.8-1 2.3-1 .7-2.2.9-3.5.6-2.8-.8-5.3-2.1-7.1-4.5-.2-.2-.3-.6-.7-.5-.4.1-.2.5-.3.8-.1 1.1.2 2.2.6 3.2.8 1.8 1.2 2.1 3.1 2.1.9 0 1.8 0 2.7.2 1.7.5 2.6 1.6 2.7 3.3.1 1.6-.6 2.8-2.2 3.5-.9.4-1.8.7-2.8.7-2.6 0-5.2-.1-7.8-.5-3-.5-5.9.2-8.9.5-1.9.2-3.8 0-5.7 0-1 0-2-.2-3-.5-2.8-1-3.3-3-2.6-5.5.3-1 1.4-1.6 2.5-1.8 1.3-.3 2.6-.5 3.9-.2 1.3.3 2-.3 2.5-1.3.8-1.9 1-3.7.6-5.8M33.5 22c1.7 0 3.4-1.6 3.3-3.2 0-1.8-1.5-3.5-3.1-3.5-2.5.1-3.7 1.5-3.7 3.3.1 1.9 1.7 3.4 3.5 3.4m0-9c3 .3 5.6 2.4 5.5 5.6-.1 3.5-2.1 5.4-5.5 5.4-3.5 0-5.4-2-5.5-5.4-.1-3.3 2.6-5.4 5.5-5.6" fill="currentColor"/>
  </svg>
  <svg id="InduceRelaxasion" viewBox="0 0 66 66">
    <path d="M36.2 28.8c.8-2.4 1.5-4.7 2.3-6.9.9-2.3 1.9-4.5 2.9-6.9l2 4.4 2-2.5.2.1v.4c-.2 1.6.7 2.5 1.9 3.4 1.1.8 2.1 1.8 2.9 2.8.8 1 .6 1.9-.2 2.9-.7 1-1.6 1.5-2.8 1.7-1.6.3-1.8.6-1.2 2.2.7 2.1 1.2 4.3 1.2 6.6 0 1.3-.2 1.5-1.5 1.6-2.2 0-4.4 0-6.6.7-3.1 1.1-6.3 2.1-9.4 3.2-2.9 1-5.8 1.7-8.9 1.2-2.1-.3-3.9-1.3-5.2-3l-.3-.3-.2.2c.5.6.9 1.2 1.4 1.7 1.7 1.5 3.7 2 5.8 2.2 3.1.4 5.9-.6 8.7-1.6 3.3-1.1 6.6-2.3 10-3.2 3.6-.9 7.2-.5 10.5 1.2 1.4.7 2.5 1.8 3 3.4.3 1.2.1 2.2-.6 3.1-.2.2-.7.4-.9.3-.9-.3-1.9-.5-2.5-1.1-2.5-2.4-5.3-2.8-8.4-1.9-4 1.2-7.9 2.3-11.9 3.5-2.8.8-5.5 1.5-8.5 1.3-5-.3-9.8-4.2-10.8-8.9-.7-3.5.3-6.5 2.6-9 3.4-3.7 7.6-5.2 12.5-5 3 .1 5.9.9 8.8 1.6.5.5.9.5 1.2.6" fill="currentColor"/>
  </svg>
  <svg id="EasePhysicalDiscomfort" viewBox="0 0 66 66">
    <path d="M38.9 40.7c-.2-2.7-.4-5.5-.7-8.2-.2-2.4-.4-4.7-.6-7.1-.1-1-.4-1.2-1.5-1.3h-2.6c-.8 0-1.2-.3-1.2-1l-.9-10.2c-.1-.9-.3-1.1-1.2-1.3-1.8-.3-3.6-.6-5.5-.9l-3.3-.6c-1.1-.2-1.7.4-1.4 1.3 2 5.5 4 11.1 6 16.6.3.7.6 1 1.4.9 1.2 0 2.3-.1 3.5-.1.7 0 1.1.2 1.4.8 1.4 2.7 2.9 5.4 4.3 8.1.7 1.3 1.4 2.6 2.2 4 .1-.3.2-.6.1-1zM34 42.9c-.2-.6-.9-1-1.6-.8-.6.2-1.1.3-1.7.5-2.2.6-4.4 1.3-6.7 1.9-.7.2-1 .6-1 1.2 0 1 .7 1.5 1.7 1.2 1.6-.4 3.1-.9 4.7-1.4 1.2-.4 2.5-.7 3.7-1.1.7-.1 1.1-.8.9-1.5zM41.1 47.2c-.3-.8-1-1.1-1.9-.9-.8.2-1.2.8-1 1.6.9 2.8 1.9 5.6 2.8 8.4.2.5.7.8 1.4.8 1 0 1.7-.7 1.4-1.6-.8-2.9-1.8-5.6-2.7-8.3zM53.9 38c-.2-.7-.8-1-1.6-.8l-8.4 2.4c-.6.2-1 .8-.9 1.4.1.6.6 1 1.3 1h.3c2.7-.8 5.5-1.5 8.2-2.3.9-.4 1.3-1 1.1-1.7zM32.6 39.9c.7.3 1.5-.2 1.5-.8 0-.4-.2-.7-.6-.9-.9-.4-1.8-.8-2.8-1.1-.6-.2-1.2 0-1.4.4-.3.5-.1 1 .4 1.2.9.5 1.9.8 2.9 1.2zM42 37c.2 0 .4 0 .5-.2.6-.8 1.1-1.6 1.5-2.4.2-.4 0-1-.4-1.2-.4-.2-.8-.2-1.1.2-.5.7-.9 1.4-1.3 2.2-.4.6 0 1.4.8 1.4zM35.4 46.1c-.4-.1-.8-.1-1.1.3l-2.1 3c-.3.5-.2 1.1.3 1.4.5.4 1 .3 1.4-.2.7-.9 1.3-1.9 1.9-2.8.1-.2.2-.4.2-.6 0-.6-.2-1-.6-1.1zM44.6 44.3c-.5-.4-1-.4-1.3.1-.3.4-.3 1 .1 1.4.7.6 1.3 1.3 2 1.9.2.2.4.3.7.2.4 0 .7-.2.8-.6.2-.4.1-.8-.2-1.1-.7-.6-1.4-1.3-2.1-1.9z" fill="currentColor"/>
  </svg>
  <svg id="ReleaseBalance" viewBox="0 0 66 66">
    <path d="M38.3 49.6h-3V21h12.5l-5.3 8.9c-.3.4-.1 1 .3 1.3.2.1.3.1.5.1.3 0 .6-.2.8-.4l4.6-7.7 4.6 7.7c.2.4.8.6 1.2.3.4-.3.6-.9.3-1.3L49.5 21h.1c.8 0 1.4-.7 1.4-1.5s-.6-1.5-1.4-1.5H39.2c-.6-.9-1.5-1.6-2.5-1.9-.1-1.7-1.5-3.1-3.2-3.1s-3.1 1.4-3.2 3.1c-1 .3-1.9 1-2.5 1.9H17.4c-.8 0-1.4.7-1.4 1.5s.6 1.5 1.4 1.5h.1l-5.3 8.9c-.3.4-.1 1 .3 1.3.2.1.3.1.5.1.3 0 .6-.2.8-.4l4.6-7.7 4.6 7.7c.2.4.8.6 1.2.3.4-.3.6-.9.3-1.3L19.1 21h12.5v28.6h-3c-1.8 0-3.2 1.5-3.2 3.4h16.1c0-1.9-1.4-3.4-3.2-3.4zM25.5 32h-14c-.3 0-.5.2-.5.5 0 4.1 3.4 7.5 7.5 7.5s7.5-3.4 7.5-7.5c0-.3-.2-.5-.5-.5zm30 0h-14c-.3 0-.5.2-.5.5 0 4.1 3.4 7.5 7.5 7.5s7.5-3.4 7.5-7.5c0-.3-.2-.5-.5-.5z" fill="currentColor"/>
  </svg>
  <svg id="RemovesEnergyBlocks" viewBox="0 0 66 66">
    <path d="M9.1 30.9c0 1.1-.1 2.2 0 3.3.1 1.4.4 2.7.8 4 .6 1.7 1.4 3.3 2.5 4.7.8 1 1.7 2 2.8 2.8.1.1.2.1.2.1.1-.1 0-.2 0-.3-.2-.7-.5-1.2-.9-1.8-.8-1.3-1.7-2.4-2.4-3.7-.5-.9-.9-1.8-1-2.7-.1-.7.2-1.3.9-1.6.7-.2 1.4.1 1.7.7.3.6.5 1.2.7 1.9.5 1.1 1.2 2.1 2 3 1.3 1.5 2.9 2.6 4.4 3.9l3 2.7c1.5 1.5 2.8 3.3 3.7 5.2.5 1.1 1 2.3 1.3 3.5.1.3 0 .4-.3.4-1 0-2.1-.2-3.1-.3-1.1-.2-2.2-.5-3.3-.8-1.2-.4-2.3-.9-3.4-1.5-2.1-1.1-4-2.5-5.7-4.2-1.2-1.2-2.2-2.4-3.1-3.8-1-1.5-1.8-3.1-2.4-4.7-.5-1.4-1-2.9-1.2-4.4-.3-1.5-.4-3-.4-4.6 0-1.2 0-2.5.4-3.7.2-.6.4-1.2.8-1.6.3-.3.6-.4.9-.3.4.1.6.5.7.8.4 1 .4 2 .4 3M60 32.8c0 2-.3 4.1-.8 6.1-.6 2.4-1.6 4.8-2.9 6.9-.8 1.3-1.7 2.5-2.7 3.6-1.5 1.6-3.2 3-5 4.2-1.6 1-3.3 1.8-5.1 2.3-1.7.6-3.5.9-5.2 1-.3.1-.3 0-.3-.2.6-2.4 1.5-4.6 2.8-6.6 1.4-2.1 3.1-3.8 5-5.5 1.2-1.1 2.4-2.1 3.4-3.2 1.1-1.2 2.1-2.6 2.7-4.2.2-.5.3-.9.4-1.4.2-.6.7-1 1.3-1 .6 0 1 .3 1.3.8.2.5.2 1 0 1.6-.3 1.2-.9 2.3-1.5 3.4-.7 1.2-1.5 2.3-2.1 3.6-.1.2-.2.5-.2.7 0 .1-.1.2 0 .3.1.1.2-.1.2-.1 1.8-1.5 3.2-3.3 4.2-5.5.8-1.7 1.2-3.5 1.4-5.3.1-.7.2-1.4.1-2.1-.1-1.3-.2-2.6-.2-3.9 0-.5 0-1 .2-1.5.2-.7.9-1.1 1.6-.4.4.5.7 1.1.9 1.7.3 1 .4 2.1.5 3.2v1.5M33.3 58c-.1-.1-.1-.1-.1-.2 0-1.1-.3-2.1-.6-3.1-.4-1.4-1-2.8-1.7-4.1-.6-1.2-1.2-2.4-1.9-3.6-.7-1.4-1.6-2.6-2.2-4.1-.6-1.4-1-2.8-1.2-4.2-.3-1.7-.3-3.3-.1-5 .1-1.5.5-2.9 1-4.3.6-1.6 1.4-3.1 2.4-4.5.2-.3.4-.6.7-.9.2-.2.1-.3 0-.5-1.3-2-3-3.8-4.9-5.3-.5-.4-1.1-.7-1.7-1.1.4-.2.7.1 1 .2 2 .6 3.8 1.6 5.4 2.9.6.5 1.3 1 1.8 1.6.2.2.3.2.6 0 1.2-1 2.4-1.8 3.8-2.4 1.3-.6 2.6-1 4-1.3.3 0 .5-.1.8-.2.2 0 .4-.1.6.1l-1.5.6c-1.5.7-2.8 1.7-4 2.7-1.3 1.1-2.5 2.4-3.4 3.9-1.1 1.9-2 3.8-2.5 5.8-.5 1.8-.7 3.7-.6 5.6.1 2.3.5 4.5 1.4 6.7.4 1 .9 2 1.3 3s.7 2 1 3.1c.3 1 .5 2 .7 3.1.3 1.8.4 3.6 0 5.4 0 0 0 .1-.1.1M38 33.3c0 2.2-.3 4-.8 5.7-.7 2.5-1.9 4.7-3.6 6.7-.3.4-.3.3-.5-.1-.4-.8-.7-1.6-1.1-2.3-.1-.2-.1-.4 0-.7.6-1.2 1.1-2.5 1.5-3.8.3-1.2.6-2.5.7-3.7.1-1.3.1-2.6-.1-3.9-.1-.9-.3-1.8-.5-2.7-.1-.5-.3-1-.4-1.5 0-.1-.1-.3 0-.4.4-.9 1-1.7 1.7-2.5.1-.2.2-.2.4 0 .6 1 1.1 2 1.5 3.1.4 1 .7 2 .8 3.1.3 1.2.4 2.3.4 3M32 19c-2.1.1-4-1.7-4-4 0-2.2 1.7-3.9 3.8-4 2.4-.1 4.2 1.8 4.2 4.1 0 2.2-1.9 4-4 3.9" fill="currentColor"/>
  </svg>
  <svg id="BoostImmuneSystem" viewBox="0 0 66 66">
    <path d="M39.6 29h4.9v5.6H50v4.9h-5.5V45h-4.9v-5.6H34v-4.9h5.6V29zM14 27.5V26c.1-.4.1-.8.2-1.1.6-2.8 2-5 4.3-6.6 2.2-1.5 4.6-2.1 7.2-1.7 2.8.4 5.1 1.7 6.8 3.9l.3.3h.1l.3-.3c2.6-3.1 6-4.4 10-3.7 4.3.8 7 3.5 8.2 7.7.2.5.2 1.1.3 1.7v1.6c0 .1-.1.1-.1.2-.1 1.5-.6 2.9-1.4 4.2-.1.2-.2.3-.5.3h-2.5v-5.6h-9.9v5.6h-5.7V42h5.7v5.4c0 .1-.1.3-.2.4-1.3 1.6-2.6 3.2-4 4.8-.1.1-.1.2-.2.3L31 50.6c-4.8-5.8-9.6-11.5-14.4-17.3a9.5 9.5 0 0 1-2.1-3.8c-.3-.6-.4-1.3-.5-2" fill="currentColor"/>
  </svg>
  <svg id="BalanceChakras" viewBox="0 0 66 66">
    <path d="M34.5 33.1c0 .8-.7 1.5-1.5 1.4-.8 0-1.5-.8-1.4-1.6 0-.8.7-1.4 1.5-1.4.7.1 1.4.8 1.4 1.6m4.8 0c-.1-3.5-2.9-6.2-6.4-6.2-3.4.1-6.1 2.9-6.1 6.3.1 3.5 2.9 6.2 6.4 6.2 3.4-.1 6.1-3 6.1-6.3m-6.2 9.2c-5.1 0-9.2-4.1-9.3-9.3 0-4.9 4.2-9.1 9.2-9.1 5 0 9.2 4.1 9.2 9.2.1 5-4.1 9.2-9.1 9.2m-6 3.8c-.1 1.8.5 3 1.8 3 1.6.1 2.9.5 4.1 1.6 1.4-1.1 2.3-1.4 3.6-1.5 1.7-.1 2.6-1.3 2.2-3.1-3.8 1.7-7.7 1.7-11.7 0m6.2-30.4c-1.4.5-2.6 1.1-3.8 1.2-1.8.3-2.7 1.2-2.4 3.1 3.9-1.7 7.9-1.6 11.8 0 .2-1.9-.6-3-2.1-3.1-1.4 0-2.6-.5-3.5-1.2m14 18.8c-.5 4.3-2.5 7.6-5.9 10.2 1.5 1.1 2.7 1.1 3.5-.1.9-1.3 1.9-2.3 3-2.6.3-1.5.4-2.7.9-3.9.7-1.7.4-2.7-1.5-3.6m-5.9-13c3.4 2.6 5.4 6 5.9 10.2 1.6-.7 2.3-1.8 1.7-3-.6-1.4-1.1-2.8-.8-4-1.1-1-2.2-1.7-2.9-2.6-1.2-1.6-2.1-1.8-3.9-.6M18.8 31.6c.5-4.2 2.5-7.5 5.9-10.1-1.4-1.1-2.7-1.1-3.6.1-.9 1.2-1.9 2.2-3.4 2.7.5 1.5 0 2.9-.6 4.2-.7 1.3 0 2.6 1.7 3.1m5.9 13.1c-3.5-2.6-5.4-6-5.9-10.1-1.6.6-2.3 1.8-1.7 3.1.6 1.4 1.1 2.8.7 3.9 1.1.9 2.2 1.6 2.9 2.6 1.2 1.5 2.2 1.7 4 .5m8.2-.3c6.3.1 11.4-5 11.4-11.2.1-6.3-5-11.4-11.3-11.4-6.3-.1-11.4 5-11.4 11.2 0 6.3 5 11.4 11.3 11.4m-.4-34.1h1c.3.5.8 1.1 1 1.6.3 1.2.9 1.9 2.1 2.1.5.1 1.1.1 1.6.3 1.9.5 3 1.9 3.6 3.6 2.6-.4 4.6.4 6 2.6.6 1 1.7 1.3 2.8.8.9-.4 1.6-.4 2.2.4.5.7.3 1.4-.7 2.1-.9.8-1.2 1.7-.7 2.8 1.2 2.3.9 4.5-.8 6.5 1.7 2 2 4.2.7 6.6-.5 1-.2 2 .8 2.8.7.6 1.1 1.2.6 2.1-.5.8-1.3.9-2.1.5-1.3-.5-2.1-.2-3 .9-.6.7-1.2 1.5-2 1.9-1.2.5-2.5.6-3.9.9-.2.3-.5.9-.9 1.5-1 1.4-2.4 1.9-4.1 2.1-1.4.1-1.9.8-2.3 2.2-.1.6-.6 1-1 1.5h-1c-.3-.5-.8-1.1-1-1.6-.3-1.2-.9-1.9-2.1-2.1-.5-.1-1.1-.1-1.6-.3-1.9-.5-3-1.9-3.6-3.6-2.6.4-4.6-.4-6-2.6-.6-1-1.7-1.3-2.8-.8-.9.4-1.6.4-2.2-.4-.5-.7-.3-1.3.8-2.2.9-.7 1.1-1.7.6-2.7-1.2-2.3-1-4.5.8-6.5-1.8-2.6-1.9-3.6-.7-6.6.4-1.1.2-2-.8-2.8-.7-.6-1.1-1.2-.6-2.1.5-.8 1.3-.9 2.1-.5 1.3.5 2.1.2 3-.9.6-.7 1.2-1.5 2-1.9 1.2-.5 2.5-.6 3.9-.9.2-.4.6-1.1 1-1.6 1-1.2 2.3-1.8 3.9-1.9 1.5-.1 2-.7 2.4-2.2.2-.6.7-1.1 1-1.6" fill="currentColor"/>
  </svg>
</svg>
