<svg xmlns="http://www.w3.org/2000/svg">

<svg id="HypnosisIsSafe" viewBox="0 0 66 66">
  <path d="M42.68 37.53h-3.34c-.79 0-1.34.51-1.34 1.22-.01.72.53 1.24 1.32 1.24h6.75c.78 0 1.32-.52 1.32-1.24 0-.7-.56-1.21-1.34-1.22h-3.37m-.4-5.17h-3.75c-.8 0-1.37.5-1.39 1.22-.01.78.53 1.31 1.37 1.31 2.51.01 5.02.01 7.54 0 .82 0 1.34-.51 1.34-1.29 0-.73-.55-1.23-1.36-1.23h-3.75m-1.69-4.98H34.98c-.85.02-1.42.84-1.15 1.62.18.52.65.83 1.3.83h10.91c.1 0 .21 0 .31-.02.75-.11 1.23-.9.98-1.6-.19-.53-.64-.83-1.26-.83h-5.48M27.08 43.47c.6-.05 1.65-.1 2.69-.23 1.32-.16 2.6-.49 3.79-1.15.4-.23.63-.5.54-.98-.05-.27-.03-.56-.1-.82-.4-1.86-1.32-3.33-3.15-4.1l-1.8-.75a.86.86 0 0 1-.25-1.41c.08-.07.13-.16.2-.23.44-.39.53-1.07 1.1-1.36.09-.04.16-.18.17-.29.05-.41.19-.87.06-1.24-.15-.43-.11-.84-.13-1.27 0-.23-.02-.46-.05-.68a2.74 2.74 0 0 0-1.99-2.46 4.38 4.38 0 0 0-3.46.2c-.73.38-1.26.9-1.43 1.7-.12.6-.1 1.21-.16 1.81-.01.17-.04.34-.1.48-.3.64-.08 1.54.5 1.94.05.05.08.13.13.2l1.03 1.34c.05.07.1.15.12.23.06.45-.2.9-.62 1.08-.53.22-1.06.45-1.6.65-.79.31-1.45.78-2 1.44a5.7 5.7 0 0 0-1.36 3.87c0 .15.1.35.22.41.5.3 1.01.59 1.56.79 1.82.67 3.73.78 6.09.83M15 44.84V24.16c.22-.55.35-1.15.67-1.63a3.63 3.63 0 0 1 3.2-1.62h8.14c0-.65-.02-1.27 0-1.89.02-1.06.66-1.67 1.72-1.67h7.44c1.21 0 1.82.6 1.82 1.81v4.01c.82.27 1.68-.79 1.68-1.52v-4.42c0-.76-.78-1.6-1.65-1.6-2.4.04-4.8.02-7.2.02h-.4c-.02-.96.61-1.63 1.52-1.63 2.57 0 5.14.03 7.72-.02 1.15-.02 1.72.86 1.71 1.72 0 .83.02 1.66 0 2.48-.04.9.2 1.84-.32 2.71h.36c1.67 0 3.33-.02 5 .01a3.67 3.67 0 0 1 3.58 3.6c.02 6.64 0 13.27 0 19.9 0 .8-.28 1.53-.8 2.16A3.85 3.85 0 0 1 46.06 48H18.74a3.78 3.78 0 0 1-3.56-2.57l-.18-.59" fill="currentColor"/>
</svg>

<svg id="HypnosisIsANatural" viewBox="0 0 66 66">
  <path d="M40.71 48.58c-.69.29-1.58 0-1.97-.67-.4-.66 0-1.51.69-1.9a14.62 14.62 0 0 0 8.5-11.49h-6.62a12.29 12.29 0 0 1-2.77 6.46c-.5.57-1.49.76-2.08.19-.6-.48-.79-1.43-.2-2a10.04 10.04 0 0 0 2.08-4.65h-9.1c.2 1.71 1 3.32 2.08 4.65.5.57.4 1.52-.3 2-.6.47-1.58.38-2.07-.19a12.29 12.29 0 0 1-2.77-6.46h-8.11a14.62 14.62 0 0 0 10.88 12.35A4.13 4.13 0 0 1 33 43.83c2.37 0 4.25 1.8 4.25 4.08A4.14 4.14 0 0 1 33 52a4.2 4.2 0 0 1-3.66-2.09C20.94 48.2 15 41.27 15 33c0-6.65 4.05-12.82 10.38-15.67.2-.1.4-.1.6-.1.6 0 1.09.29 1.38.86.3.66 0 1.51-.69 1.9a14.63 14.63 0 0 0-8.6 11.78h8.1c.3-2.38 1.2-4.57 2.78-6.46.3-.38.69-.57 1.18-.57.3 0 .6.09.9.28.68.48.78 1.33.29 2a9.13 9.13 0 0 0-2.08 4.65h9.1a9.13 9.13 0 0 0-2.08-4.66c-.5-.66-.4-1.52.2-1.99.3-.19.6-.29.9-.29.39 0 .88.2 1.18.57a12.76 12.76 0 0 1 2.77 6.46h6.72c-.5-5.98-4.84-11.02-10.88-12.63a4.3 4.3 0 0 1-4.05 3.04 4.14 4.14 0 0 1-4.25-4.09A4.14 4.14 0 0 1 33.1 14a4.2 4.2 0 0 1 3.66 2.09C45.06 17.8 51 24.73 51 33c0 6.65-4.05 12.73-10.29 15.58zm-8.14.94c.7 0 1.29-.57 1.29-1.24 0-.66-.6-1.24-1.29-1.24-.7 0-1.28.58-1.28 1.24 0 .67.59 1.24 1.28 1.24zm0-33.04c-.7 0-1.28.57-1.28 1.24a1.29 1.29 0 0 0 2.57 0c0-.67-.6-1.24-1.29-1.24z" fill="currentColor"/>
  </svg>

<svg id="Hypnosishasdouble" viewBox="0 0 66 66">
  <path d="M44.4 34.9l1.5-1.5c2.7-3.1 3.6-7.3 2.5-11.2-.7-2.2-1.9-4.2-3.6-5.8-1.2-1.2-2.7-2.1-4.3-2.9-1.5-.7-3.1-1.1-4.8-1.4-.6-.1-1.3-.1-1.9-.1h-.9c-2.1 0-4.1.5-6 1.3-1.6.7-3.2 1.6-4.5 2.8-1 .9-1.7 1.8-2.4 2.9-.9 1.5-1.5 3.1-1.7 4.8-.2 1.3-.2 2.6.1 3.9.1.5 0 1-.3 1.4-.8 1.3-1.5 2.6-2.2 3.9-.3.6-.5 1.3-.8 1.9-.1.2-.1.4-.1.6 0 .4.3.6.6.7.4.1.8.2 1.1.2.8.1 1.6.1 2.4.1.2 0 .2.1.2.2l.2 3.3c0 .7.1 1.5.2 2.2.1.8.5 1.6 1.1 2.2.6.5 1.3.9 2.1 1 .9.2 1.8.1 2.7 0 .5 0 1-.1 1.5 0 .5 0 .8.4.8.9v.2l1 3.5 1.4 4.7.1.3 14.9-5.5-.5-1.5-1.2-3.3c-.3-.9-.6-1.9-.9-2.8-.2-.9-.4-1.8-.4-2.8 0-1 .3-1.9.8-2.7.3-.7.8-1.1 1.3-1.5zm-2.5-2.3c-.4.2-.7.4-1 .7-.8.7-1.7 1.1-2.8 1.3-1.4.2-2.8-.2-3.9-1.2-.3-.2-.5-.5-.8-.8-.4.2-.8.3-1.2.3-.8 0-1.6-.1-2.4-.4-.9-.3-1.6-1.2-1.7-2.1v-.1c-.2.1-.5.2-.7.2-1 .2-2 .3-3 0-1.2-.3-2.3-1-3-2-.4-.6-.6-1.3-.7-2-.1-1 0-2 .3-3 .3-.8.7-1.5 1.4-2 .2-.1.3-.2.3-.5.1-.7.3-1.4.7-2 .2-.3.5-.6.7-.8 1-.8 2.1-1.2 3.4-1.1.1 0 .1 0 .2-.1 1-1 2.3-1.6 3.7-1.7 1.2-.1 2.5 0 3.6.5h.2c1.2-.5 2.6-.5 3.8.1.9.4 1.8 1 2.5 1.7.2.3.4.7.6 1 .1.1.1.2.2.2 1.3.6 2.2 1.7 2.8 3 .4 1.1.5 2.2.4 3.3-.1.7-.2 1.4-.5 2-.1.2-.2.5-.4.7 0 0-.1.1 0 .2.1.9-.1 1.7-.5 2.5-.4.9-1.2 1.7-2.2 2.1zM38.2 19a6 6 0 0 0-4.8-1.4 6.49 6.49 0 0 0-5.5 5.1c-.7 3.5 1.5 7 5 7.8 1 .2 2 .2 2.9-.1 1.6-.4 3-1.5 3.8-2.9.6-1 1-2.2.9-3.5 0-.7-.1-1.5-.4-2.2-.3-1.1-1-2.1-1.9-2.8zm-7.6 8.7c-1.8-1.8-2-4.7-.5-6.7l7.1 7.2c-2 1.5-4.8 1.3-6.6-.5zm7.6-.6l-7-7.1c2-1.6 4.8-1.4 6.6.4 1.8 1.8 2 4.7.4 6.7zM30.1 24.4v.6c0 .4 0 .3.3.3h3.4l-1-1h-2.6s-.1 0-.1.1zM37.2 24.3H36l.5.6c.1.2.3.3.4.4.1.1.2.1.3.1 0 0 .1-.1.1-.2v-.7c0-.1-.1-.2-.1-.2zM38.2 24.3h-.6l-.1.1v.8c0 .1 0 .2.2.2h.6c.1 0 .2 0 .2-.2v-.8c-.1-.1-.2-.1-.3-.1zM36.5 21.8v-.7c-.1-1-.7-1.5-1.5-1.5-.6 0-1 .4-1.1 1-.1.5.3 1 .8 1.2l.3.1v.1c0 .7.3 1 1 1h1c.3 0 .5.2.5.5v.4c0 .1 0 .2.1.2h.6c.1 0 .2 0 .2-.2v-.7c0-.8-.7-1.5-1.5-1.5h-.4z" fill="currentColor"/>
</svg>

<svg id="Youarealways" viewBox="0 0 66 66">
  <path d="M49.5 13H16.4c-.2.1-.4.1-.6.2-1.4.5-2.4 1.6-2.7 3.1l-.1.3v33.9c.3 1.8 1.7 3.2 3.4 3.5h33.1c1.8-.3 3.1-1.7 3.4-3.5V16.6c-.2-1.8-1.6-3.2-3.4-3.6zM51 32.5v17.2c0 .8-.2 1.4-.8 1.8-.4.3-.9.4-1.4.4H17.2c-1.1 0-1.8-.5-2.1-1.5-.1-.2-.1-.5-.1-.8V17.4c0-.7.2-1.3.7-1.8.4-.3.9-.5 1.4-.5H48.7c.7 0 1.3.2 1.8.8.3.4.4.9.4 1.5v15.1zM24.9 23.6c-.7-.4-1-.7-.9-1.5V22c0-.6-.5-1-1-1-.6 0-1 .5-1 1.1v1.1l-.3.1c-1.6.6-2.7 2.2-2.7 3.9 0 1.7 1 3.3 2.7 3.9.3.1.3.2.3.5v13.5c.1.7.7 1.1 1.3.9.5-.1.7-.5.7-1.2v-13c0-.4 0-.5.4-.7a3.9 3.9 0 0 0 2.6-3.5c.1-1.8-.6-3.2-2.1-4zM23 29.3c-1.1 0-2-.9-2-2.1 0-1.1.9-2.1 2-2.1s2 .9 2 2.1c0 1.2-.9 2.1-2 2.1zM34.4 34.8c-.3-.1-.4-.2-.4-.6V22.4v-.5c-.1-.7-.7-1.1-1.3-.9-.4.2-.7.6-.7 1.2v12.5c-1.9.7-2.9 2.1-3 3.8-.1 2 .8 3.3 3 4.3v2.1c0 .7.5 1.2 1 1.1.6 0 1-.5 1-1.1v-1.8c0-.3.1-.4.3-.5C36 42 37 40.4 37 38.7c0-1.7-1-3.3-2.6-3.9zm-1.4 6c-1.1 0-2-1-2-2.1 0-1.2 1-2.1 2-2.1 1.1.1 2 1 2 2.1 0 1.2-.9 2.1-2 2.1zM44.3 26.5c-.2-.1-.3-.2-.3-.5v-3.9c0-.6-.3-1-.7-1.1-.7-.2-1.3.3-1.3 1.1V26c0 .3-.1.4-.3.5a4 4 0 0 0-2.7 3.9c0 1.7 1 3.3 2.7 3.9.3.1.3.2.3.5v10.1c0 .6.3 1 .8 1.1.7.2 1.3-.3 1.3-1.2V34.4l.2-.1c1.7-.6 2.8-2.1 2.8-3.9-.1-1.7-1.1-3.3-2.8-3.9zm-1.3 6c-1.1 0-2-.9-2-2.1 0-1.1.9-2.1 2-2.1s2 .9 2 2.1c0 1.1-.9 2.1-2 2.1z"  fill="currentColor"/>
</svg>

<svg id="YouCannotBeMadeTo" viewBox="0 0 66 66">
  <path d="M46.4 33.1l-2.2 2.1c-1 .9-2 1.1-3.2.5l-5.9-3-.6-.2c-.5-.1-.8.1-.7.6l.2.7 1.4 3.8.9 2.5c.2.6-.2 1.2-.9 1-.3-.1-.6-.4-.7-.7l-3.1-7.7a4.8 4.8 0 0 0-2.8-2.8l-3.5-1.5c-.8-.3-1.2-1-1-1.6.4-1.4 1.4-2.4 3.2-1.8a57 57 0 0 0 5.4 1.8 3 3 0 0 0 2.6-.5c.8-.7 1.2-1.5 1.3-2.5.1-.7-.2-1.4-.8-1.8l-1.7-.8-10.4-3.4c-1.3-.4-2.2-.2-3 1l-6.3 9c-.8 1.2-.8 2.1 0 3.3L23.5 43c.8 1 1.2 2.1 1.2 3.4v10.5c0 1.4.6 2 2.1 2h13.3c1.4 0 2.2-.5 2.2-2v-9.5c0-.9.2-1.8.9-2.4a17.8 17.8 0 0 0 4.5-11.3c0-.3-.1-.8-.3-.9-.4-.4-.7 0-1 .3zm-5.7-14.2L35.4 27c-.1.2-.3.5-.3.8-.2 1.1.9 2.3 2.4 2.3.4 0 .8-.2 1.2-.6l6-7.3c.6-.8.5-1.7-.2-2.3l-1.4-1.2c-1-1-1.8-.9-2.4.2zm-15.4-3.6l3.5 1.4.8.2c.7 0 1.3-.4 1.7-.9l2.3-3.2c.6-.9.4-1.7-.5-2.3l-3.2-2.1c-.9-.6-1.8-.4-2.4.5l-2.8 4.2c-.6 1-.4 1.7.6 2.2zm24 11.1l-1.5-1.5c-.8-.8-1.6-.8-2.2.1l-5 6c-.5.6-.6 1.2-.3 1.8.4.7 1 1 2 1.1.2-.1.7-.2 1-.5l5.8-4.7c.9-.8.9-1.6.2-2.3zm-15.7-8l4 1.6h.3c.7 0 1.3-.2 1.6-.8l2.2-3c.5-.7.4-1.5-.3-1.9L38 12.2c-.7-.4-1.5-.2-1.9.4a102 102 0 0 0-2.8 4.2c-.5.6-.3 1.3.3 1.6z" fill="currentColor"/>
</svg>

<svg id="HypnosisIsEasyAndBenifits" viewBox="0 0 66 66">
  <path d="M42.2 14c-8.5-4-18-1.6-23.3 4l3.2 3.2c3.6-3.4 7.9-5 12.9-4.5 3.7.3 7.1 2 9.7 4.6 5.2 5.2 6.2 13.2 2.4 19.5-3.8 6.3-11.4 9.2-18.4 7-6.7-2-11.3-8.2-11.3-15.2H24l-9.1-9L6 32.3l.1.1h6.7c.2 6.6 2.8 12.1 8 16.2 3.7 2.9 8 4.3 12.7 4.3 9.6 0 17.9-6.7 20-16.1 2-9.3-2.7-18.7-11.3-22.8zM34.3 41v-9c0-.4.1-.7.5-.9 2.3-1.4 4.5-2.7 6.8-4.1l.5-.3-1.7-2.7-.4.2-8.6 5.2c-.2.1-.4.2-.4.6v10.9h3.3z" fill="currentColor"/>
</svg>

</svg>