<svg xmlns="http://www.w3.org/2000/svg" viewBox="0 0 240 30"><path fill="#FFF" d="M77 8.62a25.22 25.22 0 0 0-1.46 5.79c-.21 1.69-.27 3.79 1.25 4.94.7.53 1.67.73 2.53.7.53-.02 2.05-.2 2.3-.79.31-.75-.76.09-.94.18-.59.29-1.33.29-1.94.11-3.23-.93-1.75-5.62-1.07-7.89.32-1.05.64-2.1.99-3.15.34-1.05 1.45-3.36-.37-3.71-1.61-.31-3.17 1.46-4.06 2.53-.33.39-3.4 4.87-3.56 4.78.34-1.15.76-2.28 1.15-3.41.45-1.32 1.29-2.98 1.05-4.39-.42-2.43-3.45-.42-4.38.44-.39.36-4.06 4.72-4.04 4.73-.27-.17.45-2.25.5-2.51.21-1 .42-2.13.15-3.15-.57-2.18-2.87-2.95-4.91-2.77-1.98.17-4 1.09-5.08 2.84-1.06 1.71-1.04 4.31.56 5.69a3.6 3.6 0 0 0 5.04-.47c.56-.7.89-1.74.67-2.62-.13-.53-.56-1.13-1.15-1.19-.47-.05-1 .4-.48.78.3.22.69-.01.99.33.3.34.25 1.03.16 1.44a2.7 2.7 0 0 1-2.34 2.05c-2.25.21-3.55-1.78-3.09-3.84a5.52 5.52 0 0 1 3.63-4c1.72-.61 3.95-.59 4.71 1.39.8 2.09-.53 4.91-1.29 6.84a86.16 86.16 0 0 0-1.26 3.38c-.35 1.02-1.1 2.45-1.09 3.52 0 .36.2.8.63.79.52 0 .69-.91.85-1.31.32-.77.65-1.53 1.02-2.28a49.76 49.76 0 0 1 3.08-5.35c1.13-1.69 2.57-3.68 4.3-4.79.32-.21.78-.52 1.17-.3.47.26.24.82.15 1.23-.31 1.46-.86 2.86-1.35 4.27-.54 1.56-1.05 3.13-1.52 4.71-.23.77-1.43 3.4-.06 3.65.82.15 1.24-1.99 1.55-2.62a32.6 32.6 0 0 1 1.88-3.3c1-1.57 2.01-3.22 3.28-4.59.4-.43 1.61-1.86 2.3-1.62.81.29-.26 2.41-.45 2.94zm11.02 1.74c-.55-.07-1.07 1.47-1.28 1.81-.56.91-1.24 1.74-1.99 2.49-.7.71-1.49 1.48-2.35 2-.8.48-.86.06-.61-.65.29-.84.66-1.67 1.01-2.48.28-.66 1.16-1.97.62-2.71-.51-.69-1.56.89-1.96 1.3-.21.21-2.28 2.26-2.13 2.37.23.18 1.51-1.26 1.69-1.43.58-.54.8-.58.54.25-.2.63-.48 1.24-.73 1.86-.24.6-.75 1.41-.77 2.07-.06 3.19 5.89-3.19 5.97-3.15a29.83 29.83 0 0 1-3.84 9.64 13.85 13.85 0 0 1-2.92 3.46c-.57.48-1.43 1.03-2.21 1-.31-.01-1.31-.82-1.41-.34-.11.51.92.66 1.21.67.73.03 1.5-.21 2.16-.5 1.45-.65 2.58-1.93 3.53-3.18a27.33 27.33 0 0 0 3.85-7.38c.32-.89.6-1.79.89-2.69.18-.56 1.93-4.25.73-4.41zm20.14 9.85a3.5 3.5 0 0 0 1.44-.72c.11-.09.88-.88.58-.99-.07-.03-.47.34-.53.38-.5.32-1.05.53-1.64.6-1.56.19-3.12-.62-4.48-1.29a28.27 28.27 0 0 1-3.33-1.82c-.29-.2-.57-.32-.55-.65.02-.27.43-.76.55-1.01.4-.82.72-1.69.99-2.55.56-1.73.96-3.52 1.43-5.28.42-1.59.89-3.74 2.22-4.84 1.4-1.17 3.77-.61 4.14 1.27.28 1.42-.58 3.78-2.38 3.46-1-.18-.79-.86-.44-1.49.29-.51-.03-1.12-.62-.56-.59.57-.17 1.69.38 2.1.64.48 1.6.49 2.32.18 1.43-.63 2.02-2.44 1.66-3.88-.43-1.73-2.25-2.22-3.83-2.08-4.08.38-4.57 4.66-5.47 7.85-.42 1.52-.9 3.03-1.48 4.5-.15.37-.29.75-.47 1.11-.27.54-.23.67-.78.48-.99-.35-1.85-.85-2.9-1.05-.92-.17-2.05-.25-2.75.51a1.8 1.8 0 0 0-.19 2.09c1.03 1.84 4.08 1.73 5.69.91.23-.12.69-.56.93-.59.27-.04.95.59 1.2.74.91.55 1.86 1.03 2.82 1.46 1.67.73 3.65 1.64 5.49 1.16zm-11.69-3.03c-1.05.36-2.59.35-3.5-.35-1.22-.94-.52-2.49.92-2.42 1.15.06 2.45.62 3.4 1.27.31.21.44.21.35.58-.09.39-.81.85-1.17.92zm13.73-7.85c.43-.39.92-.93 1.02-1.53.1-.63-.19-.76-.67-.41-.42.3-.69.87-.73 1.38-.02.15 0 .91.38.56zm24.86-.89l-1.43.21c-.27.04-1.04.31-1.28.19-.53-.27.33-1.31.55-1.68.16-.27 1.25-1.76.77-1.89-.52-.14-1.4 1.07-1.62 1.35-.49.64-.78 1.57-1.32 2.13-.15.16-1.46.56-1.45.6.06.22.67.1.8.23.21.2.1.31.04.56-.12.57-.42 1.15-.61 1.7-.24.68-.4 1.47-.76 2.09a7.51 7.51 0 0 1-2.15 2.27c-.78.53-1.14.36-1.03-.57.13-1.11.6-2.27.65-3.37.09-1.88-1.8-.58-2.5-.05a12.6 12.6 0 0 0-1.87 1.78c-.11.13-.62.96-.88.77-.15-.11.19-.97.23-1.11.23-.76.46-1.54.85-2.24.47-.85 1.26-1.48 1.91-2.18 1.11-1.18 3.34-3.27 2.89-5.12-.45-1.89-2.52.05-3.1.81-1.35 1.79-2.08 4.02-3.03 6.03-.68 1.45-2.11 2.71-3.27 3.78.13-.52 1.3-4.07.91-4.24-.51-.21-.7.59-.94.75-.41.28-.67-.16-1.22-.24-2.78-.38-3.88 2.59-5.58 4.11-.52.46-1.27 1.32-1.96 1.53-1.32.4-.03-2.33.16-2.82.23-.6.69-1.23.81-1.86.11-.55-.18-1.25-.78-.87-.53.33-.96 1.13-1.34 1.62-.24.31-1.38 1.45-1.26 1.83.04.13 1.22-.97 1.29-.93-.21.89-1.46 3.69.37 3.58 1.29-.07 2.35-1.38 3.27-2.15-.18.57-.27 1.6.31 1.95.59.36 1.42-.08 1.91-.41.83-.57 1.58-1.26 2.24-2.01.35-.39.63-.89 1.01-1.25-.09.84-.43 1.7-.64 2.51l-.5 1.86c-.09.33-.15 1.04-.37 1.31-.17.21-.68.23-.96.31-.91.26-1.78.62-2.63 1.04a16.12 16.12 0 0 0-3.08 1.87c-1.31 1.05-3.02 2.72-3.13 4.5-.09 1.61 1.25 2.4 2.71 2.22 3.66-.47 5.77-3.74 7.15-6.81.32-.71.65-2.42 1.4-2.61.79-.21 1.58.4 2.29.59.09.02.27.22.38.17.29-.14-.09-.45-.2-.55-.64-.6-1.88-.84-2.7-.76.16-.77.38-1.53.57-2.3.11-.45.15-1.2.4-1.59.23-.37.83-.73 1.18-1.05.45-.43.87-.89 1.33-1.32.33-.3.45-.45.49.01.03.33-.25.83-.35 1.15l-.49 1.57c-.16.51-.55 1.25-.47 1.78.08.53.51.51.89.2.67-.56 1.16-1.65 1.68-2.35.66-.89 1.39-1.79 2.28-2.46 1.61-1.21.68 1.06.54 1.9-.2 1.16-.37 3.51 1.48 2.48a8.01 8.01 0 0 0 2.67-2.23c-.34 1.66-.49 4 1.03 5.14.23.18.94.64 1.21.31.27-.34-.34-.3-.48-.39-.64-.38-.76-1.23-.79-1.91-.09-2.39.66-4.8 1.55-6.99.15-.36.28-1 .58-1.28.37-.35 1.09-.32 1.57-.39.66-.1 2.52-.66 2.71.39 1.19-.7-.18-1.25-.89-1.2zm-11.14-2a6.9 6.9 0 0 1 1.73-2.21c.58-.43.96-.16.88.52-.15 1.36-1.58 2.86-2.4 3.87-.41.5-.91 1.31-1.5 1.61-.52.26-.45.02-.31-.41.37-1.15 1.01-2.31 1.6-3.38zm-9.15 13.67c-1.07 2.63-2.14 5.45-4.54 7.19-1.21.87-4.38 2.08-4.31-.58.06-2.32 2.98-4.15 4.76-5.17.89-.51 1.81-.95 2.76-1.32.3-.12.65-.29.97-.35.3-.07.56-.25.36.23zm2.05-7.8c-.67 1.05-1.61 1.99-2.48 2.87-.39.39-2.14 2.2-2.06.71.07-1.32 1.25-2.61 2.16-3.46.46-.43 1.06-.98 1.74-.95.47.02.98.31.64.83zm38.49-6.8c.21-.73.42-1.46.67-2.17.18-.54.44-1 .23-1.57-.56-1.51-1.42.03-1.93.74a80 80 0 0 0-2.13 3.07c-.76 1.13-1.57 2.54-2.54 3.5-.52.52-.69.12-1.18-.26a7.36 7.36 0 0 0-2.11-1.16c-1.7-.6-4-.61-5.11 1.08-.93 1.41-.53 3.6 1.23 4.05.53.14 1.14.15 1.66-.01.37-.11 2.13-1.5 1.06-1.77-.43-.11-.3.25-.35.46-.11.41-.01.63-.58.86-.87.35-1.96-.1-2.38-.91-1.13-2.2 1.45-3.52 3.27-3.29.8.1 3.96 1.12 3.62 2.23-.15.5-.9 1.15-1.22 1.55-.5.63-1 1.26-1.55 1.85-1.35 1.44-3.07 3.18-5.19 3.12-1.56-.04-3.94-1.64-2.79-3.48.24-.39.51-.4.89-.55.22-.09.66-.06.38-.43-.57-.75-1.95.95-2.11 1.41-.54 1.52.51 3.32 1.94 3.9 3.33 1.35 5.92-1.27 7.72-3.69.57-.77 1.12-1.56 1.68-2.34.44-.62.78-1.32 1.45-.51.77.91 1.27 2.05 1.69 3.15.19.51.36 1.03.51 1.55.1.36.15 1.07.37 1.36.35.48.91.32 1.13-.26.17-.48-.01-1.29.01-1.81.04-1.33.2-2.66.41-3.98.31-1.91.71-3.82 1.25-5.69zm-2.94 7.88c-.24 0-.53-.77-.62-.95-.31-.54-.64-1.04-1.03-1.52-.18-.22-.72-.64-.8-.92-.09-.32.32-.75.5-1.01.6-.86 1.21-1.71 1.79-2.59l.93-1.42c.24-.36.57-1.19.94-1.41.36-.21.32-.05.3.35-.03.51-.3 1.07-.43 1.56a46.46 46.46 0 0 0-.86 3.85c-.06.28-.52 4.06-.72 4.06zM169.96 19c.31-1.82.93-3.62 1.44-5.39l.44-1.57c.08-.31.34-.86.29-1.18-.04-.23.02-.29-.29-.36-.67-.16-.69.77-1.08.93-.29.12-.96-.4-1.37-.41-.67-.03-1.38.2-1.94.54-1.23.73-2.02 1.92-2.74 3.11-.3.49-1.81 2.75-2.46 1.44-.26-.51-.04-1.48-.01-2.03.04-.76.28-1.74.08-2.47-.31-1.14-1.45-.36-2 .12-.31.27-2.51 2.54-2.53 2.51-.22-.42.59-2.12.71-2.6.15-.56.62-1.77-.37-1.25-.45.24-3.46 3.64-3.19 3.93.33.35 2.01-2.16 2.22-2.04.29.16-1.29 3.75-1.41 4.19-.12.45-.21.79.28.91.32.08.72-.16.91-.38.34-.41.51-1.22.83-1.69.39-.56.83-1.09 1.27-1.62.37-.44 1.83-2.44 2.09-1.11.25 1.26-.48 2.67-.09 3.94.58 1.88 2.76-.17 3.52-.78-.12.56.02 1.27.65 1.43.76.19 1.67-.55 2.2-.98.96-.77 1.66-1.78 2.57-2.59-.11 1.07-.51 2.18-.8 3.2-.19.65-.32 1.67-.71 2.23-.29.42-.84.44-1.33.58-2.87.83-5.6 2.36-7.31 4.88-.79 1.16-1.7 3.22-.16 4.21 1.29.83 3.55.07 4.7-.71 2.47-1.66 3.89-4.43 4.97-7.12.33-.81.34-1.36 1.34-1.29.43.03.89.17 1.26.38.13.07.61.54.83.38.35-.27-.39-.72-.55-.82a3.16 3.16 0 0 0-2.26-.52zm-.31-5.88a29.5 29.5 0 0 1-2.21 2.4c-.73.72-2.17 1.62-1.59-.17a6.22 6.22 0 0 1 3-3.56c.35-.16 1.02-.4 1.31.01.32.47-.25.99-.51 1.32zm-1.45 7c-.8 2.21-1.8 4.16-3.41 5.88-.96 1.03-3.72 3.63-5.12 1.9-1.63-2.02 2.03-5.05 3.52-6.01a16.5 16.5 0 0 1 2.92-1.44c.23-.08 2.33-.93 2.09-.33zm16.57-17.15c-1.5-.28-2.62 2.04-3.13 3.1a26.34 26.34 0 0 0-1.7 4.85c-.31 1.2-1 2.04-1.81 2.97-.72.83-1.48 1.73-2.42 2.32-.56.35-1.44.79-2.1.45-.52-.28-.72-1.13-.41-1.64.29-.48 1.03-.51 1.5-.76a3.6 3.6 0 0 0 1.52-1.37c.98-1.74-.66-2.34-2.02-1.45-1.38.9-2.75 2.87-2.24 4.59.55 1.85 2.78 1.24 3.99.42 1.39-.95 2.48-2.28 3.68-3.45-.31 1.66-.54 5.22 1.77 5.58.1.02.65.09.68-.12.01-.07-.77-.43-.89-.55-.75-.79-.66-2.25-.57-3.23.1-1.18.17-2.37 1.01-3.28.76-.82 1.51-1.6 2.14-2.53.58-.89 3.27-5.48 1-5.9zm-11.18 10.75c.24-.72.72-1.35 1.34-1.79.56-.4 1.24-.56 1.04.34a2.72 2.72 0 0 1-1.18 1.56c-.28.19-1.46.69-1.2-.11zm10.03-5.48c-.21.37-1.94 3.11-2.41 2.91-.43-.18 2.28-6.05 2.69-6.69.17-.27.53-.92.93-.74.36.17.25.83.2 1.13a9.84 9.84 0 0 1-1.41 3.39z"/></svg>